<?xml version="1.0" standalone="no"?>
<!DOCTYPE svg PUBLIC "-//W3C//DTD SVG 20010904//EN"
 "http://www.w3.org/TR/2001/REC-SVG-20010904/DTD/svg10.dtd">
<svg version="1.0" xmlns="http://www.w3.org/2000/svg"
 width="1440.000000pt" height="437.000000pt" viewBox="0 0 1440.000000 437.000000"
 preserveAspectRatio="xMidYMid meet">

<g transform="translate(0.000000,437.000000) scale(0.100000,-0.100000)"
fill="#000000" stroke="none">
<path d="M0 2620 l0 -1750 167 -84 c1653 -826 3416 -1000 5317 -524 550 137
1071 317 1736 598 908 384 1509 577 2255 724 313 62 627 106 995 138 224 20
919 16 1145 -6 757 -73 1391 -227 2060 -501 169 -69 448 -199 603 -281 l122
-65 0 1751 0 1750 -7200 0 -7200 0 0 -1750z"/>
</g>
</svg>
