<svg version="1.1" id="Layer_1" xmlns="http://www.w3.org/2000/svg" xmlns:xlink="http://www.w3.org/1999/xlink" x="0px" y="0px"
	 width="100%" viewBox="0 0 1440 437" enable-background="new 0 0 1440 437" xml:space="preserve">
<path fill="#0C1524" opacity="1.000000" stroke="none" 
	d="
M382.000000,438.000000 
	C357.974182,438.000000 333.948334,438.000000 309.268158,437.615662 
	C303.635468,436.868530 298.658325,436.488159 293.678589,436.145630 
	C251.579834,433.249817 210.092468,426.496918 169.175507,416.244781 
	C110.399200,401.517853 54.589527,379.112457 1.000000,351.000000 
	C1.000000,234.356384 1.000000,117.712753 1.000000,1.034568 
	C480.882111,1.034568 960.764221,1.034568 1441.000000,1.034568 
	C1441.000000,117.025589 1441.000000,233.051529 1440.734863,349.868805 
	C1430.397339,345.543213 1420.386597,340.300537 1410.242920,335.329041 
	C1320.380493,291.286835 1225.384521,267.648285 1125.406982,264.241852 
	C1071.777588,262.414551 1018.546570,266.963684 965.746216,276.232239 
	C889.778625,289.567505 816.614075,312.502563 745.676636,342.478699 
	C697.001587,363.047394 648.208862,383.150879 597.579224,398.543488 
	C532.551880,418.313354 466.306610,431.436554 398.457092,436.207062 
	C392.956573,436.593781 387.485016,437.392639 382.000000,438.000000 
z"/>
<path fill="#FFFFFF" opacity="1.000000" stroke="none" 
	d="
M382.468658,438.000000 
	C387.485016,437.392639 392.956573,436.593781 398.457092,436.207062 
	C466.306610,431.436554 532.551880,418.313354 597.579224,398.543488 
	C648.208862,383.150879 697.001587,363.047394 745.676636,342.478699 
	C816.614075,312.502563 889.778625,289.567505 965.746216,276.232239 
	C1018.546570,266.963684 1071.777588,262.414551 1125.406982,264.241852 
	C1225.384521,267.648285 1320.380493,291.286835 1410.242920,335.329041 
	C1420.386597,340.300537 1430.397339,345.543213 1440.734863,350.330078 
	C1441.000000,379.322144 1441.000000,408.644318 1441.000000,438.000000 
	C1088.312500,438.000000 735.624878,438.000000 382.468658,438.000000 
z"/>
<path fill="#FEFEFE" opacity="1.000000" stroke="none" 
	d="
M1.000000,351.468658 
	C54.589527,379.112457 110.399200,401.517853 169.175507,416.244781 
	C210.092468,426.496918 251.579834,433.249817 293.678589,436.145630 
	C298.658325,436.488159 303.635468,436.868530 308.806885,437.615662 
	C206.447128,438.000000 103.894257,438.000000 1.000000,438.000000 
	C1.000000,409.313354 1.000000,380.625336 1.000000,351.468658 
z"/>
</svg>